<?xml version="1.0" encoding="UTF-8" standalone="no"?>
<svg
   xmlns:dc="http://purl.org/dc/elements/1.1/"
   xmlns:cc="http://creativecommons.org/ns#"
   xmlns:rdf="http://www.w3.org/1999/02/22-rdf-syntax-ns#"
   xmlns:svg="http://www.w3.org/2000/svg"
   xmlns="http://www.w3.org/2000/svg"
   xmlns:sodipodi="http://sodipodi.sourceforge.net/DTD/sodipodi-0.dtd"
   xmlns:inkscape="http://www.inkscape.org/namespaces/inkscape"
   viewBox="0 0 36 36"
   version="1.1"
   id="svg10"
   sodipodi:docname="male.svg"
   inkscape:version="1.0 (4035a4fb49, 2020-05-01)">
  <metadata
     id="metadata16">
    <rdf:RDF>
      <cc:Work
         rdf:about="">
        <dc:format>image/svg+xml</dc:format>
        <dc:type
           rdf:resource="http://purl.org/dc/dcmitype/StillImage" />
        <dc:title></dc:title>
      </cc:Work>
    </rdf:RDF>
  </metadata>
  <defs
     id="defs14" />
  <sodipodi:namedview
     inkscape:snap-bbox-midpoints="true"
     inkscape:snap-bbox="true"
     inkscape:document-rotation="0"
     pagecolor="#9f9f9f"
     bordercolor="#666666"
     borderopacity="1"
     objecttolerance="10"
     gridtolerance="10"
     guidetolerance="10"
     inkscape:pageopacity="0"
     inkscape:pageshadow="2"
     inkscape:window-width="1920"
     inkscape:window-height="1016"
     id="namedview12"
     showgrid="false"
     inkscape:zoom="17.524671"
     inkscape:cx="18"
     inkscape:cy="18"
     inkscape:window-x="1440"
     inkscape:window-y="0"
     inkscape:window-maximized="1"
     inkscape:current-layer="g912"
     inkscape:snap-object-midpoints="true"
     inkscape:snap-page="true" />
  <g
     transform="translate(0.70460487,0.0764547)"
     id="g912">
    <g
       transform="translate(-0.95460486,-0.8264547)"
       id="g921">
      <path
         id="path4"
         d="m 15,30.5 c -4.687,0 -8.5,-3.813 -8.5,-8.5 0,-4.687 3.813,-8.5 8.5,-8.5 4.687,0 8.5,3.813 8.5,8.5 0,4.687 -3.813,8.5 -8.5,8.5 z m 0,-14 c -3.032,0 -5.5,2.468 -5.5,5.5 0,3.032 2.468,5.5 5.5,5.5 3.032,0 5.5,-2.468 5.5,-5.5 0,-3.032 -2.468,-5.5 -5.5,-5.5 z"
         fill="#ffffff" />
      <path
         id="path6"
         d="m 28.5,7 h -8.969 c -0.829,0 -1.5,0.671 -1.5,1.5 0,0.829 0.671,1.5 1.5,1.5 h 5.348 l -7,6.879 L 20,19 27,12.121 V 17.5 c 0,0.828 0.672,1.5 1.5,1.5 0.828,0 1.5,-0.672 1.5,-1.5 v -9 C 30,7.671 29.328,7 28.5,7 Z"
         fill="#ffffff" />
    </g>
  </g>
</svg>
